<?xml version="1.0" encoding="UTF-8"?>
<svg id="Capa_2" data-name="Capa 2" xmlns="http://www.w3.org/2000/svg" viewBox="0 0 82.99 31.26">
  <defs>
    <style>
      .cls-1 {
        fill: #fff;
        stroke: #fff;
        stroke-linejoin: round;
        stroke-width: .5px;
      }
    </style>
  </defs>
  <g id="Capa_1-2" data-name="Capa 1">
    <g>
      <g>
        <path class="cls-1" d="M19.31,1.05c-.75-.25-1.6-.08-2.33.13-.88.25-1.72.63-2.54,1.04-1.94.98-3.85,2.06-5.66,3.25-2.32,1.53-4.43,3.29-6.31,5.34-1.44,1.57-3.01,3.72-1.79,5.87.85,1.49,2.56,2.07,4.18,2.25,1.8.2,3.63-.02,5.42-.28.37-.05.74-.11,1.1-.16.06,0,.06-.11,0-.1-1.63.24-3.27.49-4.92.5-1.65,0-3.54-.18-4.85-1.3-.72-.61-1.24-1.54-1.26-2.5-.02-1.24.7-2.38,1.45-3.32,1.61-2.02,3.62-3.74,5.71-5.22,1.92-1.36,3.96-2.48,6.02-3.6,1.44-.78,3.1-1.68,4.77-1.74.78-.03,1.57.25,1.77,1.08.14.57.01,1.19-.13,1.75-.14.56-.32,1.11-.51,1.65-.97,2.67-2.33,5.22-3.6,7.76-1.34,2.67-2.73,5.3-4.15,7.92-.72,1.32-1.45,2.64-2.17,3.96-.64,1.17-1.22,2.38-1.9,3.52-.04.06-.07.12-.11.17-.01.01-.02.03-.03.05,0,0,0,.02-.01.02-.31.5-.64.99-.99,1.46-.17.24.08.58.33.35.29-.27.51-.59.68-.93.59-.89,1.1-1.84,1.59-2.78.69-1.34,1.4-2.66,2.12-3.99,1.51-2.8,2.99-5.61,4.42-8.46.71-1.41,1.38-2.84,2.07-4.25.66-1.35,1.3-2.71,1.83-4.12.41-1.08.86-2.27.92-3.44.04-.84-.27-1.63-1.11-1.92Z"/>
        <path class="cls-1" d="M36.64,18.26c-.41-.11-.81-.06-1.23-.03-.47.04-.93.09-1.4.15-.95.12-1.9.27-2.85.37-.66.07-1.34.16-2.01.13-.25,0-.6,0-.82-.13-.26-.15.05-.65.12-.89.03-.11-.09-.17-.18-.14-.87.33-1.39,1.17-2.05,1.81.12-.31.29-.6.43-.87.21-.41.5-.81.64-1.25,0,0,0,0,0,0,.03-.16-.17-.28-.31-.12-.23.26-.42.58-.59.9-.21.17-.45.32-.65.45-.52.32-1.08.59-1.68.72-.43.1-1.33.14-1.28-.52.04-.51.42-1,.63-1.45.08-.16-.07-.35-.25-.26-.27.14-1.55,1.04-2.49,1.88.46-.82.92-1.65,1.39-2.47.45-.77.89-1.54,1.32-2.33,1.05-1,2.04-2.12,2.69-3.43.22-.45.61-1.36-.1-1.59-.05-.01-.1,0-.13.04-.68.87-1.25,1.75-1.77,2.73-.44.83-.86,1.67-1.33,2.48-.05.08-.1.16-.15.25-.48.42-.99.81-1.5,1.17-.61.43-1.41.98-2.22,1.09-.23-.09-.53-.05-.75-.03-.08,0-.14.17-.04.19,0,0,.02,0,.02,0,0,0,0,0,0,0,0,0,0,0,0,0,.12.03.23.04.35.04.2.05.39.15.33.36-.06.26-.33.51-.52.69-.18.17-.97.95-1.26.69-.26-.23.1-1.1.19-1.34.09-.24.19-.48.31-.71,0,.03-.01.06-.02.08-.02.05.06.06.08.02.08-.23.2-.43.32-.64.06-.12-.06-.24-.18-.19-.37.16-.6.77-.75,1.11-.23.49-.5,1.1-.42,1.66.08.57.63.58,1.06.35.54-.29,1.09-.82,1.4-1.35.13-.22.26-.53.1-.77,0-.01-.02-.02-.02-.03.57-.13,1.12-.43,1.59-.72.59-.36,1.14-.78,1.67-1.22-.6,1.02-1.22,2.03-1.81,3.05-.36.62-.74,1.23-.96,1.92-.04.13.01.2.09.22,0,.02.02.04.04.05.08.06.2-.02.22-.11.03-.02.06-.05.07-.08.03-.06.07-.12.1-.18.1-.1.21-.19.32-.28.36-.31.71-.61,1.08-.91.41-.32.82-.69,1.26-1-.18.38-.33.79-.25,1.16.12.54.81.62,1.28.56.71-.1,1.4-.45,2-.81.15-.09.31-.2.47-.31-.04.07-.08.15-.12.22-.24.46-.52.98-.52,1.51,0,.2.23.24.37.14.77-.61,1.23-1.72,2.09-2.22-.11.22-.23.46-.17.7.06.23.31.31.51.37.6.16,1.2.1,1.8.07,1.05-.05,2.09-.18,3.13-.3.51-.06,1.02-.12,1.53-.16.56-.05,1.15,0,1.69-.15.14-.04.28-.32.08-.37ZM24.18,12.67c.28-.57.57-1.13.86-1.69.28-.53.55-1.07.9-1.55.91.44-1.16,2.98-1.49,3.38-.25.31-.52.61-.81.89.18-.34.36-.69.53-1.04Z"/>
      </g>
      <g>
        <path class="cls-1" d="M61.02.35c-.14.16-.26.34-.38.52-.87,1.21-1.73,2.41-2.53,3.66-.92,1.43-1.81,2.87-2.76,4.29-1.91,2.86-3.9,5.65-6.14,8.27-.95,1.11-1.98,2.29-3.31,2.96-.78.39-1.82.7-2.56.07-.6-.51-.83-1.39-.97-2.13-.16-.89-.19-1.81-.19-2.71,0-1.86.14-3.71.25-5.56.01-.03.02-.06.03-.09.11-.25-.22-.33-.33-.12-.48.86-.81,1.82-1.14,2.74-.28.79-.59,1.57-.92,2.35-.39.93-.79,1.86-1.15,2.8-.2.53-.4,1.05-.59,1.59-.17.5-.47,1.1-.47,1.63,0,.07.09.07.12.03.33-.47.48-1.13.69-1.67.21-.52.41-1.04.63-1.56.38-.91.79-1.82,1.18-2.73.33-.76.63-1.52.91-2.29.2-.55.42-1.08.64-1.62-.13,1.4-.25,2.8-.28,4.21-.02.92-.01,1.85.12,2.77.11.83.3,1.72.82,2.4,1.51,1.99,4.26-.15,5.48-1.38,2.45-2.47,4.48-5.38,6.43-8.24,1.13-1.66,2.21-3.35,3.29-5.04.67-1.05,1.33-2.12,2.06-3.14-.02.05-.03.09-.05.14-.33.88-.72,1.74-1.09,2.6-.77,1.79-1.5,3.59-2.16,5.42-1.3,3.65-2.11,7.4-2.21,11.28-.02.94,0,1.89.02,2.83.02.79.04,1.63.43,2.34.12.21.44-.04.37-.23-.24-.66-.23-1.41-.24-2.1,0-.79-.03-1.59-.01-2.38.03-1.89.2-3.77.54-5.63.67-3.7,2.02-7.24,3.47-10.7.39-.94.85-1.86,1.18-2.82.3-.86.6-1.75,1.13-2.51.17-.24-.14-.49-.32-.25Z"/>
        <path class="cls-1" d="M71.39,16.49c.15-.26.39-.76.13-1.02s-.6-.05-.81.14c-.53.47-1.03,1.26-1.2,1.96-.02.09.02.24.13.27,1.13.26,2.06-1.16,2.67-1.91l-.19-.04c.04.61-.46,1.32-.18,1.91.15.31.52.45.83.53.58.15,1.2.19,1.8.19,1.29,0,2.56-.25,3.83-.5.65-.13,1.3-.25,1.96-.35.3-.04.6-.08.91-.1.2-.02.39-.03.59-.03.09,0,.36-.04.44.02l.17-.5s-.09,0-.14.02c-.46.15-.24.81.17.52-.05.03.05-.01.06-.02.18-.09.29-.43.04-.51-.22-.08-.48,0-.71.01-.3.03-.6.06-.9.1-.61.09-1.22.21-1.82.33-1.19.25-2.39.53-3.6.66-.61.07-1.23.09-1.85.05-.45-.03-1.16-.03-1.5-.39-.24-.26-.15-.61-.07-.92.08-.35.15-.68.19-1.03.01-.1-.09-.16-.17-.09-.36.3-.68.64-1.03.94-.32.27-.81.72-1.27.62l.13.27c.09-.42.37-.84.6-1.2.12-.19.26-.42.45-.55.39-.28.29.39.21.59-.04.09.08.12.12.04h0Z"/>
        <path class="cls-1" d="M74.85,12.33s-.03,0-.05,0c0,0,0,0,0,0-.02,0-.03,0-.05,0-.09-.02-.26-.1-.33-.11-.2-.04-.4-.05-.6-.06-.44-.02-.88,0-1.31.02-.94.03-1.87.03-2.81.07.02-.06.05-.13.07-.19.19-.48.37-.98.49-1.48,0,0,0,0,0,0,.04-.24-.29-.32-.39-.08-.25.59-.49,1.19-.73,1.78-1.12.06-2.25.14-3.36.28-.83.11-1.63.27-2.45.35.03-.07.02-.14-.07-.14-.29.01-.55.09-.82.2-.13.05-.15.28.01.3,1.02.13,2.08-.16,3.08-.32,1.14-.18,2.31-.24,3.46-.31,0,.02-.02.05-.03.07-.2.35-.42.69-.63,1.02-.68,1.05-1.47,1.98-2.24,2.96-.51.64-1.01,1.28-1.5,1.93.18-.51.34-1.03.48-1.56.14-.55.29-1.15.28-1.72,0-.15-.2-.17-.28-.06-.42.59-.9,1.14-1.42,1.64-.45.43-.97.85-1.57,1.03.05-.09.1-.18.14-.26.18-.4.3-.8.38-1.23.05-.27-.31-.25-.37-.02,0,.02-.01.05-.02.07-.08.09-.13.2-.23.31-.15.18-.3.36-.48.51-.27.25-.56.5-.86.7-.23.16-.85.58-1.08.19-.16-.28.03-.82.05-1.12,0-.09-.05-.14-.13-.15.11-.32.18-.65.22-.99.02-.12-.04-.23-.17-.25-.65-.09-1.27.52-1.68.95-.48.5-.95,1.1-1.23,1.75-.07.16,0,.34.18.36.97.11,1.65-.71,2.38-1.25-.04.32-.09.68.07.93.22.33.66.27.96.13.43-.2.79-.56,1.14-.88.24-.23.45-.49.69-.7-.09.25-.19.49-.31.72-.09.19-.21.37-.22.58,0,.12.12.2.23.18,1.46-.29,2.26-1.57,3.18-2.62-.07.39-.13.78-.24,1.16-.16.61-.36,1.21-.58,1.81-.1.28-.21.56-.32.84-.19.26-.38.52-.57.78-.82,1.14-1.57,2.32-2.36,3.48-.61.89-1.49,2.08-1.26,3.22.03.15.21.13.3.07,1.7-1.2,2.56-3.27,3.32-5.13.42-1.03.86-2.05,1.24-3.09.6-.79,1.22-1.57,1.84-2.34.75-.93,1.52-1.82,2.18-2.82.04-.06.08-.13.12-.19-.04.1-.07.19-.11.29-.26.72-.52,1.44-.73,2.18-.16.57-.35,1.18-.34,1.77,0,.4.12.8.56.85.22.03.33-.36.08-.39-.38-.05.26-2.2.32-2.41.33-1.13.75-2.23,1.17-3.33.96-.04,1.91-.05,2.87-.08.42-.01.84-.04,1.26-.03.21,0,.42.02.63.06.11.02.21.08.32.11.02.02.05.03.08.03,0,0,.01,0,.02,0,.03,0,.06,0,.09-.01,0,0,0,0,0,0,.08-.02.12-.1.12-.17,0-.07-.02-.14-.1-.17ZM58.05,17.16c.3-.35.75-.85,1.24-.96.03.27.04.53-.04.8-.68.31-1.23,1.08-1.97,1.21.21-.38.49-.73.77-1.05ZM62.87,21.9c-.69,1.7-1.45,3.6-2.91,4.79-.01-.44.15-.89.32-1.28.24-.55.55-1.07.86-1.58.75-1.2,1.51-2.4,2.35-3.54.04-.06.08-.11.12-.16-.24.59-.5,1.18-.74,1.78Z"/>
      </g>
    </g>
  </g>
</svg>